# xmcd CD database file
#
# Track frame offsets:
#	150
#	22263
#	39389
#
# Disc length: 714 seconds
#
# Revision: 0
# Processed by: cddbd v1.5.1PL0 Copyright (c) Steve Scherf et al.
# Submitted via: CDex 1.51
#
DISCID=1f02c803
DTITLE=アルカイック・スマイル - KIMIE 1.
DYEAR=2005
DGENRE=Rock
TTITLE0=プライ夢
TTITLE1=紅乙女
TTITLE2=イギー
EXTD=YEAR: 2005
EXTT0=
EXTT1=
EXTT2=
PLAYORDER=
